<svg width="464" height="507" viewBox="0 0 464 507" fill="none" xmlns="http://www.w3.org/2000/svg">
<path d="M461.5 214.5C461.5 325.387 360.657 421 244 421C185.714 421 127.033 396.612 82.9231 358.26C38.8083 319.903 9.5 267.794 9.5 212.5C9.5 101.638 115.816 2.5 232.5 2.5C290.75 2.5 348.04 27.7353 390.777 66.9459C433.519 106.16 461.5 159.155 461.5 214.5Z" stroke="#FFF5F6" stroke-width="5"/>
<path d="M449 236V236.061L449.004 236.121C452.958 285.047 427.745 337.768 387.876 378.323C348.019 418.868 293.758 447 240 447C186.026 447 135.16 430.587 98.5569 397.635C61.9881 364.714 39.5164 315.164 42.4981 248.567L42.4996 248.534V248.5C42.4996 198.377 69.9577 149.758 111.044 113.622C152.123 77.4928 206.657 54 260.5 54C368.226 54 449 135.515 449 236Z" stroke="#FFF5F6" stroke-width="3"/>
<path d="M448 287.501C448 412.856 349.882 506.501 224.5 506.501C159.36 506.501 106.861 485.913 68.965 450.759C31.0723 415.609 7.74294 365.861 1 307.472C1.01424 182.137 94.1223 95.0007 219.5 95.0007C265.645 95.0006 322.794 111.807 368.397 144.291C413.992 176.769 448 224.882 448 287.501Z" stroke="#FFF5F6"/>
</svg>
